<?xml version="1.0" standalone="no"?>
<!DOCTYPE svg PUBLIC "-//W3C//DTD SVG 20010904//EN"
 "http://www.w3.org/TR/2001/REC-SVG-20010904/DTD/svg10.dtd">
<svg version="1.0" xmlns="http://www.w3.org/2000/svg"
 width="360.000000pt" height="360.000000pt" viewBox="0 0 360.000000 360.000000"
 preserveAspectRatio="xMidYMid meet">

<g transform="translate(0.000000,360.000000) scale(0.100000,-0.100000)"
fill="#000000" stroke="none">
<path d="M1850 3000 c0 -6 37 -10 90 -10 53 0 90 4 90 10 0 6 -37 10 -90 10
-53 0 -90 -4 -90 -10z"/>
<path d="M1834 2978 c-3 -4 -27 -8 -55 -8 -27 0 -49 -4 -49 -10 0 -5 26 -10
57 -10 43 0 54 -3 45 -12 -9 -9 -29 -8 -84 2 -55 11 -73 11 -76 2 -2 -7 -10
-12 -18 -12 -8 0 -14 -4 -14 -9 0 -4 -11 -6 -24 -4 -13 3 -27 -1 -31 -8 -6 -9
3 -11 41 -5 27 3 50 10 52 14 1 4 84 6 185 4 159 -4 185 -2 196 12 7 9 28 16
47 16 18 0 36 5 39 10 4 6 -13 10 -44 10 -27 0 -52 4 -56 9 -3 6 -16 6 -33 0
-18 -6 -56 -6 -101 -1 -39 5 -74 5 -77 0z m216 -38 c0 -6 -37 -10 -90 -10 -53
0 -90 4 -90 10 0 6 37 10 90 10 53 0 90 -4 90 -10z"/>
<path d="M2150 2941 c0 -5 20 -9 45 -9 25 -1 45 3 45 8 0 6 -20 10 -45 10 -25
0 -45 -4 -45 -9z"/>
<path d="M2078 2923 c6 -2 18 -2 25 0 6 3 1 5 -13 5 -14 0 -19 -2 -12 -5z"/>
<path d="M1710 2911 c0 -6 5 -13 10 -16 6 -3 10 1 10 9 0 9 -4 16 -10 16 -5 0
-10 -4 -10 -9z"/>
<path d="M2130 2910 c0 -5 5 -10 11 -10 5 0 7 5 4 10 -3 6 -8 10 -11 10 -2 0
-4 -4 -4 -10z"/>
<path d="M2220 2908 c0 -4 23 -8 50 -8 28 0 50 5 50 10 0 6 -22 9 -50 8 -27
-1 -50 -6 -50 -10z"/>
<path d="M1545 2891 c-3 -5 2 -11 10 -15 8 -3 17 -1 20 3 3 5 -2 11 -10 15 -8
3 -17 1 -20 -3z"/>
<path d="M2335 2890 c-18 -8 -17 -9 8 -9 15 -1 37 -10 49 -21 l22 -20 -57 0
c-48 0 -57 3 -57 18 -1 16 -1 16 -11 0 -9 -16 -27 -18 -135 -18 -110 0 -130 3
-154 20 -28 20 -28 20 -33 0 -4 -17 -14 -20 -61 -20 -49 0 -56 2 -56 20 0 11
-6 20 -13 20 -8 0 -22 -9 -32 -20 -23 -25 -46 -26 -39 -2 5 15 4 15 -5 1 -14
-22 -116 -26 -125 -4 -6 16 -36 21 -36 6 0 -5 -9 -7 -20 -4 -11 3 -20 0 -20
-6 0 -6 -7 -11 -15 -11 -9 0 -37 -11 -64 -24 -44 -23 -49 -24 -64 -8 -13 13
-19 13 -29 4 -7 -7 -19 -12 -28 -12 -8 0 -22 -9 -30 -20 -8 -11 -22 -20 -32
-20 -10 0 -18 -4 -18 -10 0 -5 -6 -10 -12 -10 -7 0 -27 -14 -45 -30 -18 -17
-36 -30 -40 -30 -15 0 -93 -87 -93 -104 0 -9 -4 -16 -10 -16 -13 0 -13 -47 0
-55 13 -8 13 -52 0 -60 -5 -3 -10 -26 -10 -51 0 -24 5 -44 10 -44 6 0 10 -22
10 -49 0 -28 5 -53 10 -56 6 -3 10 -15 10 -26 0 -10 5 -19 10 -19 6 0 15 -11
21 -24 7 -14 22 -27 35 -30 l24 -6 0 -285 c0 -178 4 -286 10 -290 6 -4 10 -68
10 -161 0 -96 4 -154 10 -154 6 0 10 -37 10 -90 0 -84 -1 -90 -20 -90 -21 0
-52 -15 -83 -39 -17 -14 -36 -50 -51 -93 -3 -10 -12 -18 -21 -18 -9 0 -15 -9
-15 -25 0 -14 -4 -25 -10 -25 -5 0 -10 -4 -10 -10 0 -5 7 -10 16 -10 8 0 12
-5 9 -10 -4 -6 -1 -18 6 -27 12 -14 10 -15 -21 -8 -27 5 -32 4 -23 -5 16 -17
-15 -54 -33 -39 -14 12 -54 3 -54 -12 0 -5 5 -9 10 -9 6 0 10 -7 10 -15 0 -10
-11 -15 -37 -16 -31 -2 -33 -3 -10 -6 15 -2 27 -10 27 -16 -1 -29 -17 -36 -71
-33 -30 1 -63 -1 -74 -5 -12 -5 12 -8 61 -8 58 -1 85 3 93 13 7 8 21 12 31 9
11 -3 27 1 36 8 12 9 17 10 23 1 5 -8 123 -13 426 -17 231 -2 527 -7 658 -10
160 -4 237 -2 237 5 0 5 7 10 15 10 8 0 15 5 15 10 0 17 25 11 38 -10 10 -17
23 -20 87 -19 63 1 75 4 76 17 0 11 2 12 6 5 3 -10 8 -9 20 2 12 13 13 18 3
31 -7 8 -9 18 -5 22 4 4 10 1 12 -5 8 -21 22 -15 16 7 -3 11 -13 20 -22 20
-14 0 -14 2 -1 10 22 14 6 22 -24 11 -15 -6 -26 -7 -26 -1 0 5 -9 12 -20 15
-20 6 -29 45 -10 45 23 0 8 18 -20 24 -27 5 -44 36 -20 36 6 0 10 7 10 15 0
17 -25 20 -35 5 -8 -13 -45 -13 -45 0 0 5 -11 12 -24 16 -17 4 -22 11 -19 25
4 13 0 19 -11 19 -9 0 -16 -7 -16 -16 0 -9 -6 -14 -12 -12 -16 6 -24 238 -8
238 6 0 10 66 10 190 0 120 4 190 10 190 6 0 10 105 10 296 l0 296 28 26 c15
15 33 39 41 55 8 15 23 27 33 27 13 0 18 8 18 30 0 17 5 30 10 30 6 0 10 28
10 65 0 60 -2 65 -21 65 -20 0 -21 4 -15 53 8 62 1 87 -25 87 -10 0 -19 5 -19
10 0 6 -9 10 -20 10 -11 0 -20 5 -20 10 0 6 -8 10 -18 10 -9 0 -23 9 -30 20
-9 16 -23 20 -62 20 -28 0 -50 5 -50 10 0 6 -14 10 -30 10 -28 0 -30 2 -20 20
11 20 60 29 60 10 0 -5 20 -10 45 -10 35 0 45 -4 45 -16 0 -9 8 -22 17 -29 14
-11 21 -8 44 16 15 16 32 29 38 29 13 0 81 65 81 78 0 12 -84 92 -97 92 -6 0
-16 7 -23 15 -14 17 -17 17 -45 5z m-447 -84 c3 -3 -52 -6 -122 -6 -70 0 -125
3 -122 8 5 8 235 6 244 -2z m178 2 c3 -4 -34 -8 -81 -8 -58 0 -84 3 -80 11 8
12 154 9 161 -3z m200 1 c3 -5 -37 -9 -88 -8 -63 1 -85 4 -68 9 33 11 149 10
156 -1z m194 1 c0 -6 -34 -10 -82 -9 -57 1 -75 4 -58 9 37 12 140 12 140 0z
m-1054 -35 c-8 -8 -19 -15 -25 -15 -12 0 -79 -42 -102 -65 -9 -8 -25 -15 -37
-15 -12 0 -22 -5 -22 -12 0 -6 -2 -9 -5 -6 -9 9 6 38 19 38 7 0 22 9 34 20 12
11 26 20 33 20 6 0 19 8 28 19 16 18 39 28 74 30 16 1 17 -1 3 -14z m221 9
c-3 -3 -12 -4 -19 -1 -8 3 -5 6 6 6 11 1 17 -2 13 -5z m433 -74 c0 -5 7 -10
15 -10 19 0 19 -7 0 -26 -13 -13 -17 -13 -37 6 -13 11 -24 16 -26 10 -2 -5
-17 -10 -33 -10 -16 0 -29 -4 -29 -10 0 -5 -9 -10 -20 -10 -13 0 -20 7 -20 20
0 15 7 20 24 20 14 0 28 5 31 10 3 6 26 10 51 10 24 0 44 -4 44 -10z m-364
-28 c9 -13 8 -20 -2 -30 -8 -7 -14 -8 -14 -2 0 5 -11 10 -25 10 -18 0 -25 5
-25 20 0 26 50 28 66 2z m454 -34 c0 -12 -10 -9 -26 6 -20 21 -17 28 6 14 11
-7 20 -16 20 -20z m-955 2 c3 -5 -1 -10 -9 -10 -8 0 -18 5 -21 10 -3 6 1 10 9
10 8 0 18 -4 21 -10z m1145 -40 c0 -5 9 -10 20 -10 11 0 20 -4 20 -10 0 -5 9
-10 20 -10 11 0 20 -4 20 -10 0 -6 -95 -10 -265 -10 -170 0 -265 -4 -265 -10
0 -5 18 -10 40 -10 22 0 40 -4 40 -10 0 -10 -318 -6 -328 5 -3 3 47 5 111 5
66 0 118 4 122 10 4 6 -6 10 -24 10 -16 0 -34 7 -38 15 -12 20 -77 25 -78 5 0
-11 -13 -15 -48 -16 -42 -1 -47 1 -42 17 8 25 -10 24 -37 -1 -12 -10 -26 -16
-32 -12 -7 4 -4 8 7 10 18 4 24 22 7 22 -5 0 -10 5 -10 10 0 6 133 10 380 10
247 0 380 -4 380 -10z m-330 -74 c0 -3 -4 -8 -10 -11 -5 -3 -10 -1 -10 4 0 6
5 11 10 11 6 0 10 -2 10 -4z m60 0 c0 -3 -4 -8 -10 -11 -5 -3 -10 -1 -10 4 0
6 5 11 10 11 6 0 10 -2 10 -4z m369 0 c-2 -2 -82 -6 -176 -10 -120 -5 -173 -4
-173 3 0 7 59 11 177 11 97 0 174 -2 172 -4z m-414 -46 c3 -5 17 -10 30 -10
13 0 27 5 30 10 3 6 52 10 110 10 95 0 104 -2 110 -20 3 -11 3 -24 0 -30 -10
-16 -498 -13 -513 2 -10 10 -15 10 -20 1 -9 -14 -272 -16 -272 -2 0 14 -28 11
-33 -3 -3 -7 -6 -3 -6 10 -1 15 5 22 18 22 11 0 22 -6 24 -12 4 -9 8 -10 14
-2 14 19 497 42 508 24z m415 -30 c0 -18 -7 -20 -60 -20 -53 0 -60 2 -60 20 0
18 7 20 60 20 53 0 60 -2 60 -20z m-1040 -11 c0 -5 -4 -9 -10 -9 -5 0 -10 7
-10 16 0 8 5 12 10 9 6 -3 10 -10 10 -16z m-300 -39 c0 -5 -2 -10 -4 -10 -3 0
-8 5 -11 10 -3 6 -1 10 4 10 6 0 11 -4 11 -10z m1375 1 c-5 -9 -23 -14 -82
-26 -14 -2 -26 3 -32 13 -9 16 -10 16 -16 -1 -7 -16 -31 -17 -359 -16 -193 0
-382 5 -421 11 -38 5 -110 13 -160 17 -53 4 147 8 493 9 354 1 581 -2 577 -7z
m-1075 -161 c0 -85 -2 -100 -16 -100 -11 0 -14 5 -10 16 3 9 6 54 6 100 0 49
4 84 10 84 6 0 10 -40 10 -100z m-141 30 c47 0 81 13 81 31 0 11 4 19 10 19
14 0 8 -52 -7 -68 -9 -10 -18 -10 -32 -2 -11 5 -33 10 -50 10 -36 0 -44 11
-34 47 l8 28 3 -32 c2 -24 8 -33 21 -33z m431 20 c0 -22 -4 -40 -10 -40 -5 0
-10 18 -10 40 0 22 5 40 10 40 6 0 10 -18 10 -40z m592 0 c3 -31 1 -35 -24
-37 -33 -2 -37 3 -27 42 l7 30 1 -27 c1 -34 21 -38 21 -5 0 21 9 41 16 35 1
-2 4 -19 6 -38z m-1082 -52 c0 -40 -3 -59 -10 -52 -9 9 -3 114 6 114 2 0 4
-28 4 -62z m780 52 c0 -5 41 -11 92 -12 62 -2 93 -7 96 -15 3 -10 -41 -13
-196 -13 -172 0 -201 2 -206 16 -5 13 1 15 40 10 33 -3 47 -1 51 10 6 16 123
21 123 4z m436 -20 c21 0 33 -4 29 -10 -8 -13 -122 -13 -130 0 -7 11 35 31 48
23 4 -2 8 2 8 9 1 7 3 5 6 -4 3 -13 15 -18 39 -18z m-806 -10 c0 -5 -22 -10
-49 -10 -28 0 -53 5 -56 10 -4 6 15 10 49 10 31 0 56 -4 56 -10z m224 -75 c-4
-8 -11 -12 -16 -9 -6 4 -5 10 3 15 19 12 19 11 13 -6z m316 6 c0 -5 -7 -14
-15 -21 -14 -11 -14 -15 -1 -35 11 -16 12 -25 4 -33 -15 -15 -5 -24 31 -27 23
-2 28 1 23 14 -5 14 -4 14 12 2 15 -13 19 -11 34 10 9 13 17 29 17 34 1 6 6
19 13 30 10 18 11 15 12 -22 0 -31 4 -43 15 -43 8 0 15 8 15 19 0 10 7 24 15
31 13 11 15 -23 15 -299 0 -183 -4 -311 -9 -311 -5 0 -12 -82 -15 -182 -7
-231 -18 -358 -31 -358 -5 0 -10 -8 -10 -18 0 -30 -28 -59 -58 -59 -23 0 -27
4 -29 31 0 17 0 43 1 57 1 14 -3 36 -8 50 -8 19 -10 12 -10 -41 -1 -36 -4 -89
-7 -117 l-7 -53 -89 0 c-49 0 -99 5 -111 11 -16 9 -22 9 -25 0 -2 -7 -32 -11
-83 -11 l-79 0 0 215 c0 137 -4 215 -10 215 -6 0 -10 -78 -10 -215 l0 -215
-27 1 c-16 0 -23 3 -17 5 11 5 8 44 -3 44 -3 0 -13 -10 -22 -22 -19 -22 -41
-18 -41 9 0 12 3 13 14 4 20 -17 25 4 13 51 -6 23 -15 38 -24 38 -10 0 -14 7
-10 20 3 12 -2 27 -11 37 -12 12 -13 18 -4 21 6 2 11 18 11 35 -1 18 -3 24 -6
15 -6 -22 -26 -23 -43 -3 -10 12 -10 15 1 16 10 0 11 2 2 6 -7 2 -13 17 -13
32 0 16 -10 41 -22 56 l-22 28 21 -5 c20 -5 22 -1 27 86 4 50 2 138 -2 196 -7
78 -10 90 -11 48 -1 -51 -3 -58 -21 -58 -18 0 -20 7 -20 57 0 55 0 56 -20 38
-20 -18 -20 -17 -20 14 0 21 4 30 11 25 9 -5 10 9 5 50 -5 34 -4 56 2 56 13 0
34 53 32 82 -5 53 0 78 15 78 12 0 15 -17 15 -90 0 -49 4 -90 9 -90 5 0 7 18
4 40 -7 50 15 131 39 148 15 11 16 17 7 28 -6 8 -17 14 -23 13 -7 0 -6 -2 2
-6 6 -2 12 -12 12 -21 -1 -15 -2 -15 -15 2 -18 24 -11 77 15 98 11 9 20 23 20
31 0 8 9 17 21 20 14 4 23 -1 29 -16 8 -20 9 -19 10 8 1 26 3 27 10 10 14 -32
12 -193 -2 -197 -10 -4 -10 -13 0 -45 19 -63 17 -70 -25 -71 -21 -1 -39 -6
-41 -12 -2 -5 -12 -10 -23 -10 -10 0 -19 -4 -19 -10 0 -5 5 -10 10 -10 6 0 10
-9 10 -20 0 -11 -4 -20 -10 -20 -5 0 -10 -15 -10 -34 0 -39 18 -96 31 -96 5 0
9 -8 9 -17 0 -41 24 -81 52 -87 l28 -6 0 -195 c0 -120 4 -195 10 -195 6 0 11
74 12 188 l3 187 63 3 62 3 0 89 0 89 -57 4 c-42 2 -52 5 -36 11 25 9 37 55
17 63 -8 3 -12 9 -9 13 3 4 -2 13 -10 20 -8 7 -15 18 -15 25 0 8 -6 15 -12 18
-10 3 -10 8 -2 16 8 9 14 8 24 -4 7 -8 19 -15 26 -15 8 0 14 -4 14 -10 0 -5 7
-10 15 -10 10 0 15 10 15 31 0 31 1 31 38 24 20 -4 55 -7 77 -6 54 2 74 -11
52 -33 -8 -9 -23 -16 -31 -16 -9 0 -16 -4 -16 -10 0 -5 9 -10 20 -10 11 0 20
5 20 10 0 6 6 10 14 10 8 0 16 4 18 9 5 15 53 18 50 4 -1 -7 5 -13 13 -13 19
0 19 16 0 24 -18 6 -9 36 11 36 8 0 14 -9 14 -19 0 -11 6 -21 13 -24 10 -4 10
-7 0 -18 -15 -16 -17 -59 -3 -59 6 0 10 9 10 20 0 33 14 23 28 -20 15 -48 15
-60 2 -60 -5 0 -10 14 -10 30 0 28 -14 42 -22 21 -1 -5 -16 -13 -32 -17 -21
-5 -27 -4 -22 5 4 6 2 11 -4 11 -6 0 -15 11 -20 25 -5 14 -17 25 -27 24 -11 0
-13 -3 -5 -6 6 -2 12 -16 12 -29 0 -13 5 -24 10 -24 6 0 10 -9 10 -20 0 -11
-4 -20 -10 -20 -5 0 -10 9 -10 20 0 11 -4 20 -10 20 -5 0 -10 9 -10 20 0 15
-7 20 -24 20 -14 0 -28 5 -31 10 -10 17 -25 11 -25 -10 0 -14 7 -20 23 -20 31
-1 57 -23 57 -49 0 -15 7 -21 23 -22 12 -1 36 -3 52 -4 17 -1 35 2 42 7 13 10
28 -6 19 -21 -3 -5 -44 -8 -91 -7 -47 0 -85 -1 -86 -4 0 -3 -3 -25 -6 -49 -4
-33 -2 -42 7 -36 10 6 12 2 7 -16 -4 -13 -7 -30 -7 -36 0 -7 -4 -13 -10 -13
-5 0 -10 6 -10 13 0 18 -24 67 -32 67 -17 0 -7 39 12 45 13 4 20 15 20 31 0
33 -16 30 -32 -6 -7 -16 -16 -30 -20 -30 -5 0 -8 -11 -8 -25 0 -14 4 -25 8
-25 5 0 14 -16 22 -35 8 -19 17 -35 22 -35 4 0 8 -7 8 -15 0 -8 2 -15 4 -15 2
0 11 -3 19 -6 9 -3 16 3 20 15 4 17 13 21 45 21 23 0 45 6 52 15 7 8 9 15 5
15 -4 0 6 12 22 28 20 18 34 45 42 80 7 28 17 52 22 52 5 0 9 10 9 23 0 26
-21 77 -32 77 -5 0 -8 9 -8 20 0 11 -4 20 -10 20 -5 0 -10 7 -10 16 0 19 -24
44 -43 44 -8 0 -20 -7 -28 -16 -11 -14 -13 -14 -21 0 -7 12 -26 16 -78 16 -73
0 -83 6 -50 30 11 8 20 19 20 24 0 6 -5 5 -12 -2 -18 -18 -28 -15 -28 8 0 11
-4 20 -10 20 -5 0 -10 6 -10 14 0 8 -4 16 -9 18 -5 2 -11 12 -13 23 -3 18 3
20 70 23 59 2 72 0 72 -13 0 -8 5 -15 10 -15 6 0 10 -5 10 -11 0 -12 17 -29
49 -47 29 -17 39 -8 23 19 -7 11 -10 25 -6 32 4 7 -2 4 -13 -5 -24 -22 -33
-23 -33 -3 0 9 -11 27 -25 40 -22 23 -32 25 -120 25 -74 0 -95 -3 -95 -14 0
-12 -47 -32 -56 -23 -7 7 9 76 16 72 4 -3 11 2 14 10 3 9 -1 18 -9 21 -12 5
-11 10 7 30 13 12 23 29 23 36 0 18 36 23 46 7 6 -10 12 -8 27 9 20 22 47 29
56 14 6 -10 36 -9 51 0 19 12 70 12 91 0 18 -9 24 -8 39 8 18 20 55 27 55 11z
m-460 -42 c0 -16 -4 -28 -9 -25 -8 5 -3 56 5 56 2 0 4 -14 4 -31z m-340 1 c0
-5 -20 -10 -44 -10 -25 0 -48 5 -51 10 -4 6 13 10 44 10 28 0 51 -4 51 -10z
m-110 -275 c0 -143 -4 -225 -10 -225 -6 0 -10 82 -10 225 0 143 4 225 10 225
6 0 10 -82 10 -225z m235 193 c3 -18 5 -62 3 -98 l-3 -65 -64 -3 c-45 -2 -67
1 -73 10 -6 9 -10 10 -15 2 -5 -7 -20 -12 -35 -12 l-28 1 0 78 c0 77 1 79 24
79 13 0 31 3 39 6 11 4 16 -2 19 -18 2 -17 9 -23 28 -23 23 0 25 -4 28 -47 3
-46 5 -48 33 -48 26 0 29 3 29 33 0 42 -9 52 -26 29 -12 -15 -13 -14 -14 12 0
21 4 27 15 22 8 -3 15 -2 15 3 0 5 -9 11 -21 14 -25 7 -16 27 13 27 14 0 18 5
14 15 -3 8 -1 15 4 15 5 0 12 -15 15 -32z m80 -87 c3 -5 1 -12 -5 -16 -5 -3
-10 1 -10 9 0 18 6 21 15 7z m0 -40 c3 -5 1 -12 -5 -16 -5 -3 -10 1 -10 9 0
18 6 21 15 7z m273 -50 c22 -18 31 -48 12 -36 -9 6 -14 -8 -11 -27 0 -5 -6 -8
-15 -8 -8 0 -12 -5 -9 -10 4 -6 1 -9 -6 -8 -8 2 -19 20 -27 41 -12 35 -12 40
5 53 24 18 26 17 51 -5z m-92 -155 c8 -8 14 -22 14 -30 0 -9 5 -16 10 -16 6 0
10 -4 10 -10 0 -15 -29 -12 -46 4 -8 8 -14 22 -14 30 0 12 -10 16 -40 16 -22
0 -40 5 -40 10 0 16 89 12 106 -4z m-29 -62 c-3 -3 -12 -4 -19 -1 -8 3 -5 6 6
6 11 1 17 -2 13 -5z m23 -35 c0 -10 -4 -21 -10 -24 -5 -3 -10 -15 -10 -26 0
-10 -5 -19 -11 -19 -7 0 -9 -9 -5 -22 21 -67 21 -65 -3 -41 -11 12 -21 32 -21
45 0 22 -19 63 -20 43 0 -5 -5 -3 -10 7 -11 18 -3 51 11 42 5 -3 9 1 9 8 0 10
10 13 35 10 26 -3 35 -9 35 -23z m-470 -150 c0 -64 -4 -98 -10 -94 -17 10 -11
195 6 195 2 0 4 -45 4 -101z m550 77 c0 -8 -7 -16 -15 -20 -13 -4 -14 -2 -5
14 13 23 20 26 20 6z m-323 -43 c-3 -10 -5 -2 -5 17 0 19 2 27 5 18 2 -10 2
-26 0 -35z m643 32 c0 -8 -4 -15 -10 -15 -5 0 -10 -7 -10 -16 0 -40 -70 -63
-92 -30 -5 7 -8 6 -8 -4 0 -13 -1 -13 -10 0 -6 10 -2 19 18 33 l27 18 -27 -7
c-18 -4 -28 -2 -28 5 0 9 70 17 103 12 4 0 7 4 7 9 0 6 7 10 15 10 8 0 15 -7
15 -15z m-570 -127 c0 -24 -3 -54 -7 -67 -6 -23 -6 -23 -17 -3 -16 29 -8 112
10 112 10 0 14 -13 14 -42z m-40 -59 c0 -5 -9 -9 -20 -9 -11 0 -20 6 -20 14 0
9 7 12 20 9 11 -3 20 -9 20 -14z m-240 -148 c0 -50 -4 -93 -10 -96 -6 -4 -10
28 -10 89 0 57 4 96 10 96 6 0 10 -36 10 -89z m300 -195 c0 -3 -4 -8 -10 -11
-5 -3 -10 -1 -10 4 0 6 5 11 10 11 6 0 10 -2 10 -4z m630 -125 c0 -6 -4 -13
-10 -16 -5 -3 -10 1 -10 9 0 9 5 16 10 16 6 0 10 -4 10 -9z m-448 -93 c-8 -8
-9 -15 -1 -25 9 -10 8 -13 -4 -13 -22 0 -29 28 -9 39 23 14 28 13 14 -1z m320
-6 c17 -17 28 -15 28 4 0 30 35 10 38 -22 4 -37 -13 -53 -59 -55 -40 -3 -63
-13 -90 -40 -23 -23 -104 -26 -161 -6 -41 14 -59 27 -39 27 7 0 11 6 8 14 -9
23 12 84 31 90 35 10 231 1 244 -12z m388 -2 c0 -5 -7 -10 -16 -10 -8 0 -12 5
-9 10 3 6 10 10 16 10 5 0 9 -4 9 -10z m-116 -27 c-5 -5 -12 -12 -16 -18 -4
-6 -8 -2 -8 8 0 9 7 17 17 17 9 0 12 -3 7 -7z m159 -20 c-7 -2 -19 -2 -25 0
-7 3 -2 5 12 5 14 0 19 -2 13 -5z m7 -33 c0 -5 -4 -10 -10 -10 -5 0 -10 5 -10
10 0 6 5 10 10 10 6 0 10 -4 10 -10z"/>
<path d="M2241 1770 c0 -99 5 -182 10 -185 5 -4 9 68 9 179 0 114 -4 186 -10
186 -6 0 -9 -70 -9 -180z"/>
<path d="M2043 1885 c-15 -17 -17 -45 -3 -45 6 0 10 9 10 20 0 11 5 20 10 20
6 0 10 5 10 10 0 14 -13 12 -27 -5z"/>
<path d="M1523 1755 c-3 -9 -3 -18 -1 -21 3 -3 8 4 11 16 6 23 -1 27 -10 5z"/>
<path d="M1535 1660 c-3 -5 -1 -10 4 -10 6 0 11 5 11 10 0 6 -2 10 -4 10 -3 0
-8 -4 -11 -10z"/>
<path d="M1950 1645 c0 -16 27 -32 37 -21 7 7 -16 36 -28 36 -5 0 -9 -7 -9
-15z"/>
<path d="M2248 1458 c-1 -62 -2 -140 -4 -174 -1 -33 2 -67 7 -75 5 -8 9 60 9
174 0 103 -2 187 -5 187 -3 0 -6 -51 -7 -112z"/>
<path d="M1601 1414 c0 -11 3 -14 6 -6 3 7 2 16 -1 19 -3 4 -6 -2 -5 -13z"/>
<path d="M1756 1404 c-10 -25 -7 -94 4 -94 6 0 10 25 10 55 0 57 -3 66 -14 39z"/>
<path d="M1600 1380 c0 -5 5 -10 10 -10 6 0 10 5 10 10 0 6 -4 10 -10 10 -5 0
-10 -4 -10 -10z"/>
<path d="M2052 1219 c2 -6 8 -10 13 -10 5 0 11 4 13 10 2 6 -4 11 -13 11 -9 0
-15 -5 -13 -11z"/>
<path d="M1881 934 c-12 -14 -11 -16 4 -12 10 1 20 9 23 16 5 17 -10 15 -27
-4z"/>
<path d="M1360 1944 c0 -8 5 -12 10 -9 6 3 10 10 10 16 0 5 -4 9 -10 9 -5 0
-10 -7 -10 -16z"/>
<path d="M1505 2870 c-3 -5 3 -10 15 -10 12 0 18 5 15 10 -3 6 -10 10 -15 10
-5 0 -12 -4 -15 -10z"/>
<path d="M1465 2850 c-3 -5 -15 -10 -26 -10 -10 0 -19 -4 -19 -10 0 -5 9 -10
20 -10 11 0 20 5 20 10 0 6 9 10 21 10 11 0 17 5 14 10 -3 6 -10 10 -15 10 -5
0 -12 -4 -15 -10z"/>
<path d="M2590 820 c0 -5 5 -10 10 -10 6 0 10 5 10 10 0 6 -4 10 -10 10 -5 0
-10 -4 -10 -10z"/>
<path d="M2560 795 c0 -8 9 -15 20 -15 24 0 27 15 4 24 -22 9 -24 8 -24 -9z"/>
<path d="M2636 761 c-4 -7 -5 -15 -2 -18 9 -9 19 4 14 18 -4 11 -6 11 -12 0z"/>
</g>
</svg>
